# xmcd
#
# Track frame offsets:
#	150
#	17155
#	33467
#	43010
#	59536
#	73936
#	95185
#	110185
#	128481
#	145452
#	164204
#	178523
#
# Disc length: 2623 seconds
#
# Revision: 1
# Processed by: cddbd v1.4PL0 Copyright (c) Steve Scherf et al.
# Submitted via: audiograbber 1.81.03
#
DISCID=bd0a3d0c
DTITLE=Lightnin' Willie and The Poorboys - Lucky As The Devil
DYEAR=2003
DGENRE=Blues
TTITLE0=Eyes In The Back Of My Head
TTITLE1=Cryin'
TTITLE2=Lucky As The Devil
TTITLE3=It's Her I Know
TTITLE4=Seven Steps
TTITLE5=Why Are You So Blue?
TTITLE6=Close To You
TTITLE7=Devil On The Run
TTITLE8=Sun In Her Eyes
TTITLE9=Sweet Marie
TTITLE10=I Got Troubles
TTITLE11=Calling Out To Muddy
EXTD=
EXTT0=
EXTT1=
EXTT2=
EXTT3=
EXTT4=
EXTT5=
EXTT6=
EXTT7=
EXTT8=
EXTT9=
EXTT10=
EXTT11=
PLAYORDER=
